<?xml version="1.0" encoding="UTF-8" standalone="no"?>
<!DOCTYPE svg PUBLIC "-//W3C//DTD SVG 1.1//EN" "http://www.w3.org/Graphics/SVG/1.1/DTD/svg11.dtd">
<svg width="100%" height="100%" viewBox="0 0 6652 6773" version="1.1" xmlns="http://www.w3.org/2000/svg" xmlns:xlink="http://www.w3.org/1999/xlink" xml:space="preserve" xmlns:serif="http://www.serif.com/" style="fill-rule:evenodd;clip-rule:evenodd;stroke-linecap:round;stroke-linejoin:bevel;stroke-miterlimit:1.5;">
    <g transform="matrix(1,0,0,1,-1392.82,-2453.93)">
        <g transform="matrix(1,0,0,1,1409.49,-169.325)">
            <g transform="matrix(-31.1668,41.6516,-41.6516,-31.1668,62137.3,-35453.1)">
                <g id="anitbody">
                    <g>
                        <g transform="matrix(-0.937416,0.339998,-0.325042,-0.931846,2635.64,385.129)">
                            <path d="M1297.43,441.63L1289.42,425.805" style="fill:none;stroke:rgb(22,189,163);stroke-width:0.97px;"/>
                        </g>
                        <g transform="matrix(-0.910795,0.41286,-0.41286,-0.910795,2636.35,286.559)">
                            <path d="M1295.76,441.383L1289.42,425.805" style="fill:none;stroke:rgb(22,189,163);stroke-width:0.96px;"/>
                        </g>
                        <g transform="matrix(-0.379915,0.926248,-0.933621,-0.376915,2163.54,-624.337)">
                            <path d="M1295.76,441.383L1289.42,425.805" style="fill:none;stroke:rgb(22,189,163);stroke-width:0.95px;"/>
                        </g>
                        <g transform="matrix(-0.376915,0.926248,-0.926248,-0.376915,2156.31,-619.163)">
                            <path d="M1295.76,441.383L1289.42,425.805" style="fill:none;stroke:rgb(22,189,163);stroke-width:0.96px;"/>
                        </g>
                        <g transform="matrix(0.385661,0.922641,-0.922641,0.385661,1184.24,-957.089)">
                            <path d="M1296.28,442.266L1289.42,425.805" style="fill:none;stroke:rgb(22,189,163);stroke-width:0.96px;"/>
                        </g>
                        <g transform="matrix(0.398959,0.916969,-0.916969,0.398959,1162.06,-959.114)">
                            <path d="M1295.76,441.383L1289.42,425.805" style="fill:none;stroke:rgb(22,189,163);stroke-width:1.04px;"/>
                        </g>
                    </g>
                </g>
            </g>
            <g id="blue-phage" serif:id="blue phage" transform="matrix(22.0421,0,0,20.722,-17147.1,-2941.35)">
                <g transform="matrix(0,1.81168,1.64858,0,900.272,341.819)">
                    <path d="M-5.875,-5.875L5.875,-5.875" style="fill:none;fill-rule:nonzero;stroke:rgb(22,189,163);stroke-width:1.35px;stroke-linejoin:miter;stroke-miterlimit:10;"/>
                </g>
                <g transform="matrix(-1.43785,0.886265,0.806473,1.58011,946.751,390.035)">
                    <path d="M-10.999,-2.874L0.751,-2.874" style="fill:none;fill-rule:nonzero;stroke:rgb(22,189,163);stroke-width:1.33px;stroke-linejoin:miter;stroke-miterlimit:10;"/>
                </g>
                <g transform="matrix(-1.4068,-0.944522,-0.859485,1.54599,946.268,449.297)">
                    <path d="M-10.889,3.063L0.862,3.063" style="fill:none;fill-rule:nonzero;stroke:rgb(22,189,163);stroke-width:1.37px;stroke-linejoin:miter;stroke-miterlimit:10;"/>
                </g>
                <g transform="matrix(1.41691,-0.926089,-0.842712,-1.5571,826.052,467.721)">
                    <path d="M-0.826,3.004L10.926,3.003" style="fill:none;fill-rule:nonzero;stroke:rgb(22,189,163);stroke-width:1.33px;stroke-linejoin:miter;stroke-miterlimit:10;"/>
                </g>
                <g transform="matrix(1.4295,0.902415,0.821169,-1.57094,825.055,371.464)">
                    <path d="M-0.781,-2.927L10.97,-2.927" style="fill:none;fill-rule:nonzero;stroke:rgb(22,189,163);stroke-width:1.37px;stroke-linejoin:miter;stroke-miterlimit:10;"/>
                </g>
                <g transform="matrix(1.64858,0,0,1.81168,838.027,453.215)">
                    <path d="M0,-37.016L32.057,-55.523L64.113,-37.016L64.113,-0.001L32.057,18.507L0,-0.001L0,-37.016Z" style="fill:none;fill-rule:nonzero;stroke:rgb(102,102,102);stroke-width:1.35px;stroke-linecap:butt;stroke-linejoin:miter;stroke-miterlimit:10;"/>
                </g>
                <g transform="matrix(1.64858,0,0,1.81168,883.992,509.175)">
                    <path d="M0,-5.375L-9.875,-15.375L-16.5,10" style="fill:none;fill-rule:nonzero;stroke:rgb(167,167,167);stroke-width:0.9px;stroke-linecap:butt;stroke-linejoin:miter;stroke-miterlimit:10;"/>
                </g>
                <g transform="matrix(1.64858,0,0,1.81168,898.829,509.175)">
                    <path d="M0,-5.375L9.875,-15.375L16.5,10" style="fill:none;fill-rule:nonzero;stroke:rgb(167,167,167);stroke-width:0.9px;stroke-linecap:butt;stroke-linejoin:miter;stroke-miterlimit:10;"/>
                </g>
                <g transform="matrix(1.64858,0,0,1.81168,885.228,531.142)">
                    <path d="M0,-17.375L-18.625,-22.75L-30,5.375" style="fill:none;fill-rule:nonzero;stroke:rgb(102,102,102);stroke-opacity:0.89;stroke-width:0.9px;stroke-linecap:butt;stroke-linejoin:miter;stroke-miterlimit:10;"/>
                </g>
                <g transform="matrix(1.64858,0,0,1.81168,897.541,530.462)">
                    <path d="M0,-17.375L18.625,-22.75L30,5.375" style="fill:none;fill-rule:nonzero;stroke:rgb(102,102,102);stroke-opacity:0.88;stroke-width:0.9px;stroke-linecap:butt;stroke-linejoin:miter;stroke-miterlimit:10;"/>
                </g>
                <g transform="matrix(1.64858,0,0,1.81168,886.877,549.032)">
                    <path d="M0,-24.75L-10.625,-23.5L-13.875,0" style="fill:none;fill-rule:nonzero;stroke:rgb(102,102,102);stroke-width:0.9px;stroke-linecap:butt;stroke-linejoin:miter;stroke-miterlimit:10;"/>
                </g>
                <g transform="matrix(1.64858,0,0,1.81168,895.738,549.032)">
                    <path d="M0,-24.75L10.625,-23.5L14,0" style="fill:none;fill-rule:nonzero;stroke:rgb(102,102,102);stroke-width:0.9px;stroke-linecap:butt;stroke-linejoin:miter;stroke-miterlimit:10;"/>
                </g>
                <g transform="matrix(1.64858,0,0,1.81168,890.243,519.743)">
                    <path d="M0,-19C-6,-15 -5.75,-7 -2.917,-6.75C-2.658,-4.979 -2.629,-1.66 -1.75,-1C-0.417,0 2.25,0 3.75,-1.5C4.576,-2.325 4.417,-5.103 4.5,-7C7.167,-8.833 6.166,-14.999 2.167,-18.666L0,-19Z" style="fill:rgb(102,102,102);fill-rule:nonzero;stroke:rgb(102,102,102);stroke-width:0.11px;stroke-linecap:butt;stroke-linejoin:round;stroke-miterlimit:2;"/>
                </g>
            </g>
            <g transform="matrix(1.30215,0,0,1.45933,276.861,-2252.07)">
                <ellipse cx="2110.32" cy="5334.21" rx="84.359" ry="80.548" style="fill:rgb(102,102,102);stroke:rgb(102,102,102);stroke-width:36.15px;stroke-linejoin:round;"/>
            </g>
            <g transform="matrix(1.73864,0,0,1.45933,-1621.09,-2578.13)">
                <path d="M2194.68,5859.41C2194.68,5859.41 2275.88,5983.86 2489.64,5976.2C2700.07,5968.66 2777.68,5851.87 2777.68,5851.87" style="fill:none;stroke:rgb(102,102,102);stroke-width:31.15px;stroke-linejoin:round;"/>
            </g>
            <g transform="matrix(1.30215,0,0,1.45933,-351.593,-2252.07)">
                <ellipse cx="2110.32" cy="5334.21" rx="84.359" ry="80.548" style="fill:rgb(102,102,102);stroke:rgb(102,102,102);stroke-width:36.15px;stroke-linejoin:round;"/>
            </g>
            <g transform="matrix(1,0,0,1,-295.276,-644.96)">
                <ellipse cx="3604.5" cy="6654.23" rx="3309.22" ry="3369.34" style="fill:rgb(102,102,102);fill-opacity:0.07;stroke:rgb(102,102,102);stroke-opacity:0.89;stroke-width:33.33px;stroke-linejoin:round;"/>
            </g>
        </g>
    </g>
</svg>
